HIERARCHY
ROOT hip
{
  OFFSET 0 90.174 2.4664
  CHANNELS 6 Xposition Yposition Zposition Zrotation Xrotation Yrotation
  JOINT abdomen
  {
    OFFSET 0 -1.186 -1.5018
    CHANNELS 6 Xposition Yposition Zposition Zrotation Xrotation Yrotation
    JOINT abdomen2
    {
      OFFSET 0 9.964 0.2134
      CHANNELS 6 Xposition Yposition Zposition Zrotation Xrotation Yrotation
      JOINT chest
      {
        OFFSET 0 13.134 -3.2573
        CHANNELS 6 Xposition Yposition Zposition Zrotation Xrotation Yrotation
        JOINT neck
        {
          OFFSET 0 20.686 -1.6905
          CHANNELS 6 Xposition Yposition Zposition Zrotation Xrotation Yrotation
          JOINT head
          {
            OFFSET 0 7.238 -0.1237
            CHANNELS 6 Xposition Yposition Zposition Zrotation Xrotation Yrotation
            End Site
            {
              OFFSET 0 0 0
            }
          }
        }
        JOINT lCollar
        {
          OFFSET 1.7069 20.075 5.0056
          CHANNELS 6 Xposition Yposition Zposition Zrotation Xrotation Yrotation
          JOINT lShldr
          {
            OFFSET 13.6458 -0.047 -4.849
            CHANNELS 6 Xposition Yposition Zposition Zrotation Xrotation Yrotation
            JOINT lForeArm
            {
              OFFSET 28.3255 -0.9759 2.2888
              CHANNELS 6 Xposition Yposition Zposition Zrotation Xrotation Yrotation
              JOINT lHand
              {
                OFFSET 22.1583 -0.53 10.8316
                CHANNELS 6 Xposition Yposition Zposition Zrotation Xrotation Yrotation
                JOINT lThumb1
                {
                  OFFSET 0.786 0.112 2.5817
                  CHANNELS 6 Xposition Yposition Zposition Zrotation Xrotation Yrotation
                  JOINT lThumb2
                  {
                    OFFSET 0.3601 -0.878 4.2331
                    CHANNELS 6 Xposition Yposition Zposition Zrotation Xrotation Yrotation
                    JOINT lThumb2_End
                    {
                      OFFSET 1.8127 -1.216 2.2227
                      CHANNELS 6 Xposition Yposition Zposition Zrotation Xrotation Yrotation
                      End Site
                      {
                        OFFSET 0.0181 -0.0122 0.0222
                      }
                    }
                  }
                }
                JOINT lCarpal1
                {
                  OFFSET 0.9571 1.114 1.7695
                  CHANNELS 6 Xposition Yposition Zposition Zrotation Xrotation Yrotation
                  JOINT lIndex1
                  {
                    OFFSET 4.1246 0.487 4.1451
                    CHANNELS 6 Xposition Yposition Zposition Zrotation Xrotation Yrotation
                    JOINT lIndex2
                    {
                      OFFSET 3.4052 -1.454 2.7682
                      CHANNELS 6 Xposition Yposition Zposition Zrotation Xrotation Yrotation
                      JOINT lIndex2_End
                      {
                        OFFSET 1.4531 -1.795 1.2713
                        CHANNELS 6 Xposition Yposition Zposition Zrotation Xrotation Yrotation
                        End Site
                        {
                          OFFSET 0.0145 -0.0179 0.0127
                        }
                      }
                    }
                  }
                  JOINT lMid1
                  {
                    OFFSET 5.6954 0.21 2.1184
                    CHANNELS 6 Xposition Yposition Zposition Zrotation Xrotation Yrotation
                    JOINT lMid2
                    {
                      OFFSET 3.9766 -1.54 2.3863
                      CHANNELS 6 Xposition Yposition Zposition Zrotation Xrotation Yrotation
                      JOINT lMid2_End
                      {
                        OFFSET 1.4042 -1.926 1.125
                        CHANNELS 6 Xposition Yposition Zposition Zrotation Xrotation Yrotation
                        End Site
                        {
                          OFFSET 0.014 -0.0193 0.0113
                        }
                      }
                    }
                  }
                }
                JOINT lCarpal2
                {
                  OFFSET 2.0956 0.66 -0.3894
                  CHANNELS 6 Xposition Yposition Zposition Zrotation Xrotation Yrotation
                  JOINT lRing1
                  {
                    OFFSET 5.0395 -0.09 2.4971
                    CHANNELS 6 Xposition Yposition Zposition Zrotation Xrotation Yrotation
                    JOINT lRing2
                    {
                      OFFSET 3.7921 -1.552 1.4806
                      CHANNELS 6 Xposition Yposition Zposition Zrotation Xrotation Yrotation
                      JOINT lRing2_End
                      {
                        OFFSET 1.4655 -1.808 0.9609
                        CHANNELS 6 Xposition Yposition Zposition Zrotation Xrotation Yrotation
                        End Site
                        {
                          OFFSET 0.0147 -0.0181 0.0096
                        }
                      }
                    }
                  }
                  JOINT lPinky1
                  {
                    OFFSET 4.9141 -1.269 0.3591
                    CHANNELS 6 Xposition Yposition Zposition Zrotation Xrotation Yrotation
                    JOINT lPinky2
                    {
                      OFFSET 3.1477 -1.685 0.8462
                      CHANNELS 6 Xposition Yposition Zposition Zrotation Xrotation Yrotation
                      JOINT lPinky2_End
                      {
                        OFFSET 0.8055 -1.585 0.7955
                        CHANNELS 6 Xposition Yposition Zposition Zrotation Xrotation Yrotation
                        End Site
                        {
                          OFFSET 0.0081 -0.0158 0.008
                        }
                      }
                    }
                  }
                }
              }
            }
          }
        }
        JOINT rCollar
        {
          OFFSET -1.7069 20.075 5.0056
          CHANNELS 6 Xposition Yposition Zposition Zrotation Xrotation Yrotation
          JOINT rShldr
          {
            OFFSET -13.6458 -0.047 -4.849
            CHANNELS 6 Xposition Yposition Zposition Zrotation Xrotation Yrotation
            JOINT rForeArm
            {
              OFFSET -28.3255 -0.9759 2.2888
              CHANNELS 6 Xposition Yposition Zposition Zrotation Xrotation Yrotation
              JOINT rHand
              {
                OFFSET -22.1583 -0.53 10.8316
                CHANNELS 6 Xposition Yposition Zposition Zrotation Xrotation Yrotation
                JOINT rThumb1
                {
                  OFFSET -0.786 0.112 2.5817
                  CHANNELS 6 Xposition Yposition Zposition Zrotation Xrotation Yrotation
                  JOINT rThumb2
                  {
                    OFFSET -0.3601 -0.878 4.2331
                    CHANNELS 6 Xposition Yposition Zposition Zrotation Xrotation Yrotation
                    JOINT rThumb2_End
                    {
                      OFFSET -1.8127 -1.216 2.2227
                      CHANNELS 6 Xposition Yposition Zposition Zrotation Xrotation Yrotation
                      End Site
                      {
                        OFFSET -0.0181 -0.0122 0.0222
                      }
                    }
                  }
                }
                JOINT rCarpal1
                {
                  OFFSET -0.9571 1.114 1.7695
                  CHANNELS 6 Xposition Yposition Zposition Zrotation Xrotation Yrotation
                  JOINT rIndex1
                  {
                    OFFSET -4.1246 0.487 4.1451
                    CHANNELS 6 Xposition Yposition Zposition Zrotation Xrotation Yrotation
                    JOINT rIndex2
                    {
                      OFFSET -3.4052 -1.454 2.7682
                      CHANNELS 6 Xposition Yposition Zposition Zrotation Xrotation Yrotation
                      JOINT rIndex2_End
                      {
                        OFFSET -1.4531 -1.795 1.2713
                        CHANNELS 6 Xposition Yposition Zposition Zrotation Xrotation Yrotation
                        End Site
                        {
                          OFFSET -0.0145 -0.018 0.0127
                        }
                      }
                    }
                  }
                  JOINT rMid1
                  {
                    OFFSET -5.6954 0.21 2.1184
                    CHANNELS 6 Xposition Yposition Zposition Zrotation Xrotation Yrotation
                    JOINT rMid2
                    {
                      OFFSET -3.9766 -1.54 2.3863
                      CHANNELS 6 Xposition Yposition Zposition Zrotation Xrotation Yrotation
                      JOINT rMid2_End
                      {
                        OFFSET -1.4042 -1.926 1.125
                        CHANNELS 6 Xposition Yposition Zposition Zrotation Xrotation Yrotation
                        End Site
                        {
                          OFFSET -0.014 -0.0193 0.0113
                        }
                      }
                    }
                  }
                }
                JOINT rCarpal2
                {
                  OFFSET -2.0956 0.66 -0.3894
                  CHANNELS 6 Xposition Yposition Zposition Zrotation Xrotation Yrotation
                  JOINT rRing1
                  {
                    OFFSET -5.0395 -0.09 2.4971
                    CHANNELS 6 Xposition Yposition Zposition Zrotation Xrotation Yrotation
                    JOINT rRing2
                    {
                      OFFSET -3.7921 -1.552 1.4806
                      CHANNELS 6 Xposition Yposition Zposition Zrotation Xrotation Yrotation
                      JOINT rRing2_End
                      {
                        OFFSET -1.4655 -1.808 0.9609
                        CHANNELS 6 Xposition Yposition Zposition Zrotation Xrotation Yrotation
                        End Site
                        {
                          OFFSET -0.0147 -0.0181 0.0096
                        }
                      }
                    }
                  }
                  JOINT rPinky1
                  {
                    OFFSET -4.9141 -1.269 0.3592
                    CHANNELS 6 Xposition Yposition Zposition Zrotation Xrotation Yrotation
                    JOINT rPinky2
                    {
                      OFFSET -3.1477 -1.685 0.8462
                      CHANNELS 6 Xposition Yposition Zposition Zrotation Xrotation Yrotation
                      JOINT rPinky2_End
                      {
                        OFFSET -0.8055 -1.585 0.7955
                        CHANNELS 6 Xposition Yposition Zposition Zrotation Xrotation Yrotation
                        End Site
                        {
                          OFFSET -0.0081 -0.0158 0.008
                        }
                      }
                    }
                  }
                }
              }
            }
          }
        }
      }
    }
  }
  JOINT lThigh
  {
    OFFSET 8.367 -8.2066 0.5982
    CHANNELS 6 Xposition Yposition Zposition Zrotation Xrotation Yrotation
    JOINT lShin
    {
      OFFSET 2.1923 -43.463 -0.4932
      CHANNELS 6 Xposition Yposition Zposition Zrotation Xrotation Yrotation
      JOINT lFoot
      {
        OFFSET 0.7333 -45.8593 -2.6451
        CHANNELS 6 Xposition Yposition Zposition Zrotation Xrotation Yrotation
        End Site
        {
          OFFSET 2.6618 -4.2699 12.3931
        }
      }
    }
  }
  JOINT rThigh
  {
    OFFSET -8.367 -8.2066 0.5982
    CHANNELS 6 Xposition Yposition Zposition Zrotation Xrotation Yrotation
    JOINT rShin
    {
      OFFSET -2.1923 -43.463 -0.4931
      CHANNELS 6 Xposition Yposition Zposition Zrotation Xrotation Yrotation
      JOINT rFoot
      {
        OFFSET -0.7333 -45.8593 -2.6451
        CHANNELS 6 Xposition Yposition Zposition Zrotation Xrotation Yrotation
        End Site
        {
          OFFSET -2.6618 -4.2699 12.3931
        }
      }
    }
  }
}
MOTION
Frames:	4
Frame Time:	0.0333333
-2.43867 -1.8442 -4.39912 -0 -87.8431 -0 0 -1.186 -1.5018 -0.0486838 5.5833 -0.117283 4.44089e-016 9.964 0.2134 -0.0864404 11.1667 -0.231434 0 13.134 -3.2573 -0.0864405 11.1667 -0.231434 4.44089e-016 20.686 -1.6905 -1.08786e-006 5.16893 -8.29821e-007 0 7.238 -0.1237 -8.68816e-008 2.09125 -8.86094e-008 1.7069 20.075 5.0056 15.0227 10.1502 9.85662 13.6458 -0.047 -4.849 -84.7929 -2.37282 42.9231 28.3255 -0.9759 2.2888 33.1661 1.55346 -73.034 22.1583 -0.53 10.8316 -7.2259 30.1551 3.02766 0.786 0.112 2.5817 -2.25383e-006 6.46495e-007 5.68911e-007 0.3601 -0.878 4.2331 -2.25383e-006 6.46495e-007 5.68911e-007 1.8127 -1.216 2.2227 -3.0575e-006 2.09666e-006 9.03553e-007 0.9571 1.114 1.7695 -2.20695e-032 -1.98785e-016 -6.36111e-015 4.1246 0.487 4.1451 -2.25383e-006 6.46495e-007 5.68911e-007 3.4052 -1.454 2.7682 -2.25383e-006 6.46495e-007 5.68911e-007 1.4531 -1.795 1.2713 -3.0575e-006 2.09666e-006 9.03553e-007 5.6954 0.21 2.1184 -2.25383e-006 6.46495e-007 5.68911e-007 3.9766 -1.54 2.3863 -2.25383e-006 6.46495e-007 5.68911e-007 1.4042 -1.926 1.125 -3.0575e-006 2.09666e-006 9.03553e-007 2.0956 0.66 -0.3894 -2.20695e-032 -1.98785e-016 -6.36111e-015 5.0395 -0.09 2.4971 -2.25383e-006 6.46495e-007 5.68911e-007 3.7921 -1.552 1.4806 -2.25383e-006 6.46495e-007 5.68911e-007 1.4655 -1.808 0.9609 -3.0575e-006 2.09666e-006 9.03553e-007 4.9141 -1.269 0.3591 -2.25383e-006 6.46495e-007 5.68911e-007 3.1477 -1.685 0.8462 -2.25383e-006 6.46495e-007 5.68911e-007 0.8055 -1.585 0.7955 -3.0575e-006 2.09666e-006 9.03553e-007 -1.7069 20.075 5.0056 -15.0816 10.2333 -9.72208 -13.6458 -0.047 -4.849 84.5707 -2.40724 -42.2756 -28.3255 -0.9759 2.2888 -33.694 -0.00141873 72.5439 -22.1583 -0.53 10.8316 7.21986 30.0952 -2.41898 -0.786 0.112 2.5817 3.97569e-015 1.98785e-015 9.54166e-015 -0.3601 -0.878 4.2331 2.38542e-015 1.19271e-015 1.59028e-014 -1.8127 -1.216 2.2227 3.18055e-015 5.96354e-015 1.90833e-014 -0.9571 1.114 1.7695 2.38542e-015 7.95139e-016 3.18055e-015 -4.1246 0.487 4.1451 1.59028e-015 3.57812e-015 9.54166e-015 -3.4052 -1.454 2.7682 1.59028e-015 6.36111e-015 9.54166e-015 -1.4531 -1.795 1.2713 7.95139e-016 1.98785e-015 3.18055e-015 -5.6954 0.21 2.1184 1.59028e-015 3.57812e-015 9.54166e-015 -3.9766 -1.54 2.3863 1.59028e-015 6.36111e-015 9.54166e-015 -1.4042 -1.926 1.125 7.95139e-016 1.98785e-015 3.18055e-015 -2.0956 0.66 -0.3894 2.38542e-015 7.95139e-016 3.18055e-015 -5.0395 -0.09 2.4971 1.59028e-015 3.57812e-015 9.54166e-015 -3.7921 -1.552 1.4806 1.59028e-015 6.36111e-015 9.54166e-015 -1.4655 -1.808 0.9609 7.95139e-016 1.98785e-015 3.18055e-015 -4.9141 -1.269 0.3592 1.59028e-015 3.57812e-015 9.54166e-015 -3.1477 -1.685 0.8462 1.59028e-015 6.36111e-015 9.54166e-015 -0.8055 -1.585 0.7955 7.95139e-016 1.98785e-015 3.18055e-015 8.367 -8.2066 0.5982 43.4806 -3.30765 -26.3548 2.1923 -43.463 -0.4932 -5.01163 -2.56232 -3.25179 0.7333 -45.8593 -2.6451 14.2186 1.96 27.4945 -8.367 -8.2066 0.5982 -178.458 -52.7619 -159.8 -2.1923 -43.463 -0.4931 176.26 72.5042 176.216 -0.7333 -45.8593 -2.6451 -42.8867 33.2048 58.5063 
-2.4407 -1.85456 -4.34543 -0 -88.0014 -0 0 -1.186 -1.5018 -0.0485773 5.55971 -0.117348 0 9.964 0.2134 -0.0862644 11.1195 -0.231582 0 13.134 -3.2573 -0.0862644 11.1195 -0.231582 -4.44089e-016 20.686 -1.6905 -2.31624e-007 4.99724 8.4073e-007 -4.44089e-016 7.238 -0.1237 -3.26158e-008 1.9987 7.89007e-008 1.7069 20.075 5.0056 15.2824 10.325 9.86081 13.6458 -0.047 -4.849 -84.9592 -2.45748 43.017 28.3255 -0.9759 2.2888 33.1613 1.53239 -73.219 22.1583 -0.53 10.8316 -7.43598 30.2707 3.17169 0.786 0.112 2.5817 3.7038e-006 1.56582e-007 -8.04435e-007 0.3601 -0.878 4.2331 -6.4681e-007 -2.25359e-006 -9.98466e-008 1.8127 -1.216 2.2227 2.9004e-006 1.60678e-006 -4.69726e-007 0.9571 1.114 1.7695 3.18055e-015 5.56597e-015 6.36111e-015 4.1246 0.487 4.1451 3.7038e-006 1.56582e-007 -8.04435e-007 3.4052 -1.454 2.7682 -6.4681e-007 -2.25359e-006 -9.98466e-008 1.4531 -1.795 1.2713 2.9004e-006 1.60678e-006 -4.69726e-007 5.6954 0.21 2.1184 3.7038e-006 1.56582e-007 -8.04435e-007 3.9766 -1.54 2.3863 -6.4681e-007 -2.25359e-006 -9.98466e-008 1.4042 -1.926 1.125 2.9004e-006 1.60678e-006 -4.69726e-007 2.0956 0.66 -0.3894 3.18055e-015 5.56597e-015 6.36111e-015 5.0395 -0.09 2.4971 3.7038e-006 1.56582e-007 -8.04435e-007 3.7921 -1.552 1.4806 -6.4681e-007 -2.25359e-006 -9.98466e-008 1.4655 -1.808 0.9609 2.9004e-006 1.60678e-006 -4.69726e-007 4.9141 -1.269 0.3591 3.7038e-006 1.56582e-007 -8.04435e-007 3.1477 -1.685 0.8462 -6.4681e-007 -2.25359e-006 -9.98466e-008 0.8055 -1.585 0.7955 2.9004e-006 1.60678e-006 -4.69726e-007 -1.7069 20.075 5.0056 -15.3473 10.4054 -9.73157 -13.6458 -0.047 -4.849 84.7346 -2.49184 -42.3719 -28.3255 -0.9759 2.2888 -33.6829 -0.0291251 72.7387 -22.1583 -0.53 10.8316 7.43682 30.2207 -2.56437 -0.786 0.112 2.5817 -8.85145e-007 1.08856e-006 -3.19708e-007 -0.3601 -0.878 4.2331 -3.97569e-015 -1.59028e-015 -0 -1.8127 -1.216 2.2227 -3.18055e-015 -5.96354e-015 -3.18055e-015 -0.9571 1.114 1.7695 -9.2692e-031 5.56597e-015 9.54166e-015 -4.1246 0.487 4.1451 -8.85145e-007 1.08856e-006 -3.19708e-007 -3.4052 -1.454 2.7682 -1.59028e-015 -7.55382e-015 6.36111e-015 -1.4531 -1.795 1.2713 -7.95139e-016 -1.19271e-015 3.18055e-015 -5.6954 0.21 2.1184 -8.85145e-007 1.08856e-006 -3.19708e-007 -3.9766 -1.54 2.3863 -1.59028e-015 -7.55382e-015 6.36111e-015 -1.4042 -1.926 1.125 -7.95139e-016 -1.19271e-015 3.18055e-015 -2.0956 0.66 -0.3894 -9.2692e-031 5.56597e-015 9.54166e-015 -5.0395 -0.09 2.4971 -8.85145e-007 1.08856e-006 -3.19708e-007 -3.7921 -1.552 1.4806 -1.59028e-015 -7.55382e-015 6.36111e-015 -1.4655 -1.808 0.9609 -7.95139e-016 -1.19271e-015 3.18055e-015 -4.9141 -1.269 0.3592 -8.85145e-007 1.08856e-006 -3.19708e-007 -3.1477 -1.685 0.8462 -1.59028e-015 -7.55382e-015 6.36111e-015 -0.8055 -1.585 0.7955 -7.95139e-016 -1.19271e-015 3.18055e-015 8.367 -8.2066 0.5982 43.4587 -3.21068 -26.4561 2.1923 -43.463 -0.4932 -5.01068 -2.50816 -3.29264 0.7333 -45.8593 -2.6451 14.2272 1.7689 27.449 -8.367 -8.2066 0.5982 -178.564 -52.9127 -159.884 -2.1923 -43.463 -0.4931 176.299 72.4346 176.18 -0.7333 -45.8593 -2.6451 -42.8572 33.1336 58.6864 
-2.43867 -1.8442 -4.39912 -0 -87.8431 -0 0 -1.186 -1.5018 -0.0486838 5.5833 -0.117283 4.44089e-016 9.964 0.2134 -0.0864404 11.1667 -0.231434 0 13.134 -3.2573 -0.0864405 11.1667 -0.231434 4.44089e-016 20.686 -1.6905 -1.08786e-006 5.16893 -8.29821e-007 0 7.238 -0.1237 -8.68816e-008 2.09125 -8.86094e-008 1.7069 20.075 5.0056 15.0227 10.1502 9.85662 13.6458 -0.047 -4.849 -84.7928 -2.37283 42.9231 28.3255 -0.9759 2.2888 33.1662 1.55345 -73.034 22.1583 -0.53 10.8316 -7.22591 30.1551 3.02767 0.786 0.112 2.5817 1.45016e-006 8.03667e-007 -2.34269e-007 0.3601 -0.878 4.2331 2.90032e-006 1.60733e-006 -4.68538e-007 1.8127 -1.216 2.2227 1.45016e-006 8.03667e-007 -2.34269e-007 0.9571 1.114 1.7695 -3.97569e-016 5.1684e-015 -0 4.1246 0.487 4.1451 1.45016e-006 8.03667e-007 -2.34269e-007 3.4052 -1.454 2.7682 2.90032e-006 1.60733e-006 -4.68538e-007 1.4531 -1.795 1.2713 1.45016e-006 8.03667e-007 -2.34269e-007 5.6954 0.21 2.1184 1.45016e-006 8.03667e-007 -2.34269e-007 3.9766 -1.54 2.3863 2.90032e-006 1.60733e-006 -4.68538e-007 1.4042 -1.926 1.125 1.45016e-006 8.03667e-007 -2.34269e-007 2.0956 0.66 -0.3894 -3.97569e-016 5.1684e-015 -0 5.0395 -0.09 2.4971 1.45016e-006 8.03667e-007 -2.34269e-007 3.7921 -1.552 1.4806 2.90032e-006 1.60733e-006 -4.68538e-007 1.4655 -1.808 0.9609 1.45016e-006 8.03667e-007 -2.34269e-007 4.9141 -1.269 0.3591 1.45016e-006 8.03667e-007 -2.34269e-007 3.1477 -1.685 0.8462 2.90032e-006 1.60733e-006 -4.68538e-007 0.8055 -1.585 0.7955 1.45016e-006 8.03667e-007 -2.34269e-007 -1.7069 20.075 5.0056 -15.0816 10.2333 -9.72208 -13.6458 -0.047 -4.849 84.5707 -2.40724 -42.2756 -28.3255 -0.9759 2.2888 -33.694 -0.00144507 72.5439 -22.1583 -0.53 10.8316 7.21987 30.0951 -2.41898 -0.786 0.112 2.5817 3.18055e-015 -7.95139e-016 -9.54166e-015 -0.3601 -0.878 4.2331 2.85795e-006 -1.2168e-006 2.99219e-006 -1.8127 -1.216 2.2227 -3.18055e-015 -5.56597e-015 3.18055e-015 -0.9571 1.114 1.7695 3.18055e-015 -7.95139e-016 -0 -4.1246 0.487 4.1451 3.18055e-015 -1.19271e-015 -0 -3.4052 -1.454 2.7682 2.85795e-006 -1.2168e-006 2.99219e-006 -1.4531 -1.795 1.2713 -4.77083e-015 -7.15625e-015 -0 -5.6954 0.21 2.1184 3.18055e-015 -1.19271e-015 -0 -3.9766 -1.54 2.3863 2.85795e-006 -1.2168e-006 2.99219e-006 -1.4042 -1.926 1.125 -4.77083e-015 -7.15625e-015 -0 -2.0956 0.66 -0.3894 3.18055e-015 -7.95139e-016 -0 -5.0395 -0.09 2.4971 3.18055e-015 -1.19271e-015 -0 -3.7921 -1.552 1.4806 2.85795e-006 -1.2168e-006 2.99219e-006 -1.4655 -1.808 0.9609 -4.77083e-015 -7.15625e-015 -0 -4.9141 -1.269 0.3592 3.18055e-015 -1.19271e-015 -0 -3.1477 -1.685 0.8462 2.85795e-006 -1.2168e-006 2.99219e-006 -0.8055 -1.585 0.7955 -4.77083e-015 -7.15625e-015 -0 8.367 -8.2066 0.5982 43.4806 -3.30765 -26.3548 2.1923 -43.463 -0.4932 -5.01163 -2.56232 -3.25179 0.7333 -45.8593 -2.6451 14.2186 1.96 27.4945 -8.367 -8.2066 0.5982 -178.458 -52.7619 -159.8 -2.1923 -43.463 -0.4931 176.26 72.5042 176.216 -0.7333 -45.8593 -2.6451 -42.8867 33.2048 58.5063 
-2.43417 -1.8215 -4.51709 -0 -87.4949 -0 0 -1.186 -1.5018 -0.0489204 5.63518 -0.117145 4.44089e-016 9.964 0.2134 -0.0868323 11.2705 -0.231119 0 13.134 -3.2573 -0.0868324 11.2705 -0.231119 0 20.686 -1.6905 -4.32769e-007 5.54655 7.43557e-007 0 7.238 -0.1237 -8.33301e-008 2.29485 -1.4458e-007 1.7069 20.075 5.0056 14.4512 9.76545 9.84656 13.6458 -0.047 -4.849 -84.4259 -2.18636 42.7165 28.3255 -0.9759 2.2888 33.1756 1.5874 -72.6252 22.1583 -0.53 10.8316 -6.76538 29.8998 2.71264 0.786 0.112 2.5817 -5.51738e-032 -9.93923e-016 -3.18055e-015 0.3601 -0.878 4.2331 3.97569e-016 -1.59028e-015 3.18055e-015 1.8127 -1.216 2.2227 -1.19271e-015 0 -0 0.9571 1.114 1.7695 1.54487e-031 2.78299e-015 -3.18055e-015 4.1246 0.487 4.1451 -1.10348e-031 1.98785e-015 3.18055e-015 3.4052 -1.454 2.7682 -1.65521e-031 -2.98177e-015 -3.18055e-015 1.4531 -1.795 1.2713 2.38542e-015 -2.38542e-015 3.18055e-015 5.6954 0.21 2.1184 -1.10348e-031 1.98785e-015 3.18055e-015 3.9766 -1.54 2.3863 -1.65521e-031 -2.98177e-015 -3.18055e-015 1.4042 -1.926 1.125 2.38542e-015 -2.38542e-015 3.18055e-015 2.0956 0.66 -0.3894 1.54487e-031 2.78299e-015 -3.18055e-015 5.0395 -0.09 2.4971 -1.10348e-031 1.98785e-015 3.18055e-015 3.7921 -1.552 1.4806 -1.65521e-031 -2.98177e-015 -3.18055e-015 1.4655 -1.808 0.9609 2.38542e-015 -2.38542e-015 3.18055e-015 4.9141 -1.269 0.3591 -1.10348e-031 1.98785e-015 3.18055e-015 3.1477 -1.685 0.8462 -1.65521e-031 -2.98177e-015 -3.18055e-015 0.8055 -1.585 0.7955 2.38542e-015 -2.38542e-015 3.18055e-015 -1.7069 20.075 5.0056 -14.4968 9.85482 -9.70035 -13.6458 -0.047 -4.849 84.2093 -2.22091 -42.0637 -28.3255 -0.9759 2.2888 -33.717 0.0449072 72.1141 -22.1583 -0.53 10.8316 6.74439 29.818 -2.10117 -0.786 0.112 2.5817 -2.38542e-015 -2.38542e-015 -0 -0.3601 -0.878 4.2331 -6.36111e-015 -1.19271e-015 3.18055e-015 -1.8127 -1.216 2.2227 -3.97569e-015 -5.56597e-015 3.18055e-015 -0.9571 1.114 1.7695 7.95139e-016 -1.19271e-015 -3.18055e-015 -4.1246 0.487 4.1451 -3.97569e-015 -6.36111e-015 9.54166e-015 -3.4052 -1.454 2.7682 -1.59028e-015 3.97569e-015 -3.18055e-015 -1.4531 -1.795 1.2713 -3.97569e-015 3.97569e-015 -6.36111e-015 -5.6954 0.21 2.1184 -3.97569e-015 -6.36111e-015 9.54166e-015 -3.9766 -1.54 2.3863 -1.59028e-015 3.97569e-015 -3.18055e-015 -1.4042 -1.926 1.125 -3.97569e-015 3.97569e-015 -6.36111e-015 -2.0956 0.66 -0.3894 7.95139e-016 -1.19271e-015 -3.18055e-015 -5.0395 -0.09 2.4971 -3.97569e-015 -6.36111e-015 9.54166e-015 -3.7921 -1.552 1.4806 -1.59028e-015 3.97569e-015 -3.18055e-015 -1.4655 -1.808 0.9609 -3.97569e-015 3.97569e-015 -6.36111e-015 -4.9141 -1.269 0.3592 -3.97569e-015 -6.36111e-015 9.54166e-015 -3.1477 -1.685 0.8462 -1.59028e-015 3.97569e-015 -3.18055e-015 -0.8055 -1.585 0.7955 -3.97569e-015 3.97569e-015 -6.36111e-015 8.367 -8.2066 0.5982 43.5094 -3.56255 -26.1329 2.1923 -43.463 -0.4932 -5.01297 -2.59209 -3.15266 0.7333 -45.8593 -2.6451 14.2004 2.33642 27.6006 -8.367 -8.2066 0.5982 -178.228 -52.4291 -159.619 -2.1923 -43.463 -0.4931 176.175 72.6565 176.296 -0.7333 -45.8593 -2.6451 -42.9505 33.3608 58.1086 
